<?xml version="1.0" encoding="UTF-8" standalone="no"?><!-- Generator: Gravit.io --><svg xmlns="http://www.w3.org/2000/svg" xmlns:xlink="http://www.w3.org/1999/xlink" style="isolation:isolate" viewBox="0 0 926.632 785.974" width="926.632pt" height="785.974pt"><defs><clipPath id="_clipPath_OUGnKeVw1VBQuv7dUzRnPLjeGBvYckLU"><rect width="926.632" height="785.974"/></clipPath></defs><g clip-path="url(#_clipPath_OUGnKeVw1VBQuv7dUzRnPLjeGBvYckLU)"><g><path d=" M 894.203 329.037 C 847.863 388.297 760.423 401.867 688.073 381.227 C 664.4 374.309 641.562 364.801 619.973 352.877 C 607.433 346.067 595.193 338.597 583.203 330.637 C 580.253 328.687 577.303 326.707 574.383 324.687 C 572.393 323.327 570.41 321.95 568.433 320.557 C 543.673 303.137 519.883 284.027 496.493 265.027 C 438.103 217.597 378.113 168.707 306.373 146.077 C 291.593 141.417 272.473 139.237 263.333 151.757 C 255.403 162.627 260.243 178.017 266.953 189.677 C 291.843 232.867 337.023 260.137 382.243 281.107 C 427.463 302.077 475.363 319.067 514.673 349.727 C 553.983 380.387 583.993 429.117 575.953 478.307 C 569.023 520.697 534.413 555.137 494.173 570.147 C 453.933 585.147 409.053 583.057 367.223 573.317 C 325.393 563.567 285.683 546.557 245.313 531.897 C 220.973 523.047 189.153 516.927 173.003 537.177 C 159.363 554.287 167.203 581.277 183.813 595.517 C 200.423 609.757 222.903 614.527 244.353 618.807 C 310.953 632.107 377.553 645.404 444.153 658.697 C 464.583 662.767 485.493 667.027 503.293 677.867 C 521.093 688.697 535.453 707.617 534.943 728.447 C 534.433 748.977 519.403 767.117 500.983 776.207 C 482.573 785.287 461.313 786.687 440.803 785.707 C 363.943 782.027 143.593 659.917 90.743 644.307 C 56.783 634.287 19.653 619.567 5.333 587.187 C -12.497 546.877 16.843 498.107 56.893 479.697 C 96.933 461.277 143.353 465.357 186.993 471.557 C 230.633 477.757 275.713 485.647 318.193 473.867 C 360.673 462.087 399.593 423.687 395.403 379.807 C 391.753 341.627 357.363 312.857 321.173 300.177 C 292.843 290.247 262.703 287.547 232.943 283.077 C 224.683 281.847 216.453 280.467 208.303 278.767 C 187.431 274.394 167.071 267.859 147.553 259.267 C 127.071 250.27 107.613 239.103 89.513 225.957 C 75.076 215.487 61.585 203.772 49.193 190.947 C 47.303 188.987 45.433 186.984 43.583 184.937 C 41.823 182.977 40.083 180.977 38.383 178.937 C 16.263 152.507 -0.077 119.957 4.823 86.417 C 9.713 52.967 35.783 25.117 66.823 11.737 C 84.763 4.007 104.113 0.547 123.703 0.047 C 138.027 -0.239 152.347 0.792 166.483 3.127 C 231.893 13.587 291.833 45.367 348.443 79.777 C 405.043 114.187 460.203 151.957 521.733 176.487 C 583.263 201.027 653.303 211.417 715.723 189.227 C 778.143 167.047 829.423 106.527 826.373 40.357 C 867.773 76.007 902.953 120.817 918.533 173.177 C 934.113 225.537 927.853 285.997 894.203 329.037 Z " fill="rgb(63,61,86)"/><path d=" M 588.633 253.375 C 588.633 249.355 591.891 246.097 595.911 246.097 C 599.931 246.097 603.189 249.355 603.189 253.375 C 603.189 257.395 599.931 260.653 595.911 260.653 C 591.891 260.653 588.633 257.395 588.633 253.375 Z " fill="rgb(150,160,169)"/><path d=" M 841.659 157.375 C 841.659 151.161 846.697 146.123 852.911 146.123 C 859.125 146.123 864.163 151.161 864.163 157.375 C 864.163 163.589 859.125 168.627 852.911 168.627 C 846.697 168.627 841.659 163.589 841.659 157.375 Z " fill="rgb(255,101,132)"/><path d=" M 110.754 511.375 C 110.754 509.079 112.615 507.218 114.911 507.218 C 117.207 507.218 119.068 509.079 119.068 511.375 C 119.068 513.671 117.207 515.532 114.911 515.532 C 112.615 515.532 110.754 513.671 110.754 511.375 Z " fill="rgb(255,101,132)"/><path d=" M 234.243 272.377 C 234.246 275.983 233.809 279.576 232.943 283.077 C 224.683 281.847 216.453 280.467 208.303 278.767 C 187.431 274.394 167.071 267.859 147.553 259.267 C 154.038 238.323 174.857 225.265 196.536 228.543 C 218.214 231.821 234.241 250.452 234.243 272.377 Z " fill="rgb(255,101,132)"/><path d=" M 776.659 230.375 C 776.659 228.027 778.563 226.123 780.911 226.123 C 783.259 226.123 785.163 228.027 785.163 230.375 C 785.163 232.723 783.259 234.627 780.911 234.627 C 778.563 234.627 776.659 232.723 776.659 230.375 Z " fill="rgb(240,240,240)"/><path d=" M 387.659 698.375 C 387.659 696.027 389.563 694.123 391.911 694.123 C 394.259 694.123 396.163 696.027 396.163 698.375 C 396.163 700.723 394.259 702.627 391.911 702.627 C 389.563 702.627 387.659 700.723 387.659 698.375 Z " fill="rgb(240,240,240)"/><path d=" M 448.659 757.375 C 448.659 755.027 450.563 753.123 452.911 753.123 C 455.259 753.123 457.163 755.027 457.163 757.375 C 457.163 759.723 455.259 761.627 452.911 761.627 C 450.563 761.627 448.659 759.723 448.659 757.375 Z " fill="rgb(240,240,240)"/><path d=" M 71.659 589.375 C 71.659 587.027 73.563 585.123 75.911 585.123 C 78.259 585.123 80.163 587.027 80.163 589.375 C 80.163 591.723 78.259 593.627 75.911 593.627 C 73.563 593.627 71.659 591.723 71.659 589.375 Z " fill="rgb(240,240,240)"/><path d=" M 280.659 510.375 C 280.659 508.027 282.563 506.123 284.911 506.123 C 287.259 506.123 289.163 508.027 289.163 510.375 C 289.163 512.723 287.259 514.627 284.911 514.627 C 282.563 514.627 280.659 512.723 280.659 510.375 Z " fill="rgb(240,240,240)"/><path d=" M 259.659 88.375 C 259.659 86.027 261.563 84.123 263.911 84.123 C 266.259 84.123 268.163 86.027 268.163 88.375 C 268.163 90.723 266.259 92.627 263.911 92.627 C 261.563 92.627 259.659 90.723 259.659 88.375 Z " fill="rgb(240,240,240)"/><path d=" M 516.659 421.375 C 516.659 419.027 518.563 417.123 520.911 417.123 C 523.259 417.123 525.163 419.027 525.163 421.375 C 525.163 423.723 523.259 425.627 520.911 425.627 C 518.563 425.627 516.659 423.723 516.659 421.375 Z " fill="rgb(240,240,240)"/><path d=" M 548.659 495.375 C 548.659 493.027 550.563 491.123 552.911 491.123 C 555.259 491.123 557.163 493.027 557.163 495.375 C 557.163 497.723 555.259 499.627 552.911 499.627 C 550.563 499.627 548.659 497.723 548.659 495.375 Z " fill="rgb(240,240,240)"/><path d=" M 154.843 163.705 C 160.893 161.88 166.68 159.901 172.205 157.77 C 206.165 144.653 225.643 126.859 225.643 108.95 C 225.643 91.041 206.166 73.247 172.205 60.13 C 168.847 58.833 165.385 57.591 161.819 56.406 C 174.291 91.618 171.77 130.405 154.843 163.706 L 154.843 163.705 Z " fill="none"/><path d=" M 169.643 101.947 C 169.674 123.416 164.601 144.584 154.843 163.707 C 153.553 166.227 152.186 168.704 150.743 171.137 C 136.453 195.269 115.073 214.412 89.513 225.957 C 75.076 215.487 61.585 203.772 49.193 190.947 C 47.303 188.987 45.433 186.984 43.583 184.937 C 41.823 182.977 40.083 180.977 38.383 178.937 C 16.263 152.507 -0.077 119.957 4.823 86.417 C 9.713 52.967 35.783 25.117 66.823 11.737 C 84.763 4.007 104.113 0.547 123.703 0.047 C 139.02 13.574 151.096 30.376 159.033 49.207 C 160.033 51.577 160.953 53.977 161.823 56.407 C 167.013 71.029 169.658 86.432 169.643 101.947 Z " fill="rgb(150,160,169)"/><path d=" M 231.643 108.947 C 231.643 129.777 211.303 149.097 174.363 163.367 C 166.973 166.227 159.063 168.817 150.743 171.137 C 119.603 179.817 82.543 184.627 43.583 184.937 C 41.823 182.977 40.083 180.977 38.383 178.937 C 38.803 178.947 39.223 178.947 39.643 178.947 C 81.953 178.947 122.093 173.587 154.843 163.707 C 160.893 161.877 166.693 159.897 172.203 157.767 C 206.163 144.657 225.643 126.857 225.643 108.947 C 225.643 91.037 206.163 73.247 172.203 60.127 C 168.843 58.827 165.383 57.587 161.823 56.407 C 160.953 53.977 160.033 51.577 159.033 49.207 C 164.353 50.867 169.463 52.64 174.363 54.527 C 211.303 68.797 231.643 88.127 231.643 108.947 Z " fill="rgb(228,228,228)"/><path d=" M 41.659 30.375 C 41.659 28.027 43.563 26.123 45.911 26.123 C 48.259 26.123 50.163 28.027 50.163 30.375 C 50.163 32.723 48.259 34.627 45.911 34.627 C 43.563 34.627 41.659 32.723 41.659 30.375 Z " fill="rgb(240,240,240)"/><path d=" M 130.659 57.375 C 130.659 55.027 132.563 53.123 134.911 53.123 C 137.259 53.123 139.163 55.027 139.163 57.375 C 139.163 59.723 137.259 61.627 134.911 61.627 C 132.563 61.627 130.659 59.723 130.659 57.375 Z " fill="rgb(240,240,240)"/><path d=" M 47.563 100.375 C 47.563 77.539 66.075 59.027 88.911 59.027 C 111.747 59.027 130.259 77.539 130.259 100.375 C 130.259 123.211 111.747 141.723 88.911 141.723 C 66.075 141.723 47.563 123.211 47.563 100.375 Z " fill="rgb(240,240,240)"/><g opacity="0.3"><path d=" M 852.513 319.217 C 843.233 321.957 822.773 323.977 800.273 325.217 C 777.783 326.447 753.113 326.987 728.753 327.507 C 686.113 328.427 643.476 329.35 600.843 330.277 C 594.983 330.407 589.103 330.527 583.203 330.637 C 580.253 328.687 577.303 326.707 574.383 324.687 C 579.613 324.717 584.843 324.687 590.033 324.587 C 612.203 324.147 630.973 322.417 652.353 321.597 C 685.253 320.327 720.773 321.327 755.063 321.837 C 789.353 322.357 828.423 322.167 852.513 319.217 Z  M 198.084 634.448 L 62.163 521.218 L 194.208 638.983 C 194.911 640.165 196.298 640.754 197.637 640.44 C 198.975 640.125 199.955 638.979 200.057 637.608 C 200.159 636.237 199.361 634.958 198.084 634.448 Z " fill="rgb(240,240,240)"/></g><path d=" M 90.659 201.375 C 90.659 199.027 92.563 197.123 94.911 197.123 C 97.259 197.123 99.163 199.027 99.163 201.375 C 99.163 203.723 97.259 205.627 94.911 205.627 C 92.563 205.627 90.659 203.723 90.659 201.375 Z " fill="rgb(240,240,240)"/><path d=" M 452.017 694.055 L 469.604 694.054 L 477.971 626.217 L 452.014 626.218 L 452.017 694.055 Z " fill="rgb(255,182,182)"/><path d=" M 447.53 688.313 L 452.481 688.313 L 471.808 680.453 L 482.166 688.311 L 482.168 688.311 C 494.358 688.312 504.239 698.193 504.24 710.383 L 504.24 711.101 L 447.532 711.103 L 447.53 688.313 Z " fill="rgb(47,46,65)"/><path d=" M 320.308 694.055 L 302.721 694.054 L 294.354 626.217 L 320.311 626.218 L 320.308 694.055 Z " fill="rgb(255,182,182)"/><path d=" M 324.794 711.103 L 268.085 711.101 L 268.085 710.383 C 268.086 698.193 277.968 688.312 290.158 688.311 L 300.518 680.453 L 319.844 688.313 L 324.794 688.313 L 324.794 711.103 Z " fill="rgb(47,46,65)"/><path d=" M 383.325 174.169 L 365.517 187.729 L 318.212 200.257 C 318.212 200.257 335.162 319.217 327.162 327.217 C 319.162 335.217 326.378 335.432 324.77 345.825 C 323.162 356.218 316.757 383.655 316.757 383.655 L 457.945 383.655 C 457.945 383.655 459.082 366.603 452.122 362.91 C 445.162 359.217 458.538 341.981 452.85 339.1 C 447.162 336.219 455.163 311.217 455.163 311.217 L 472.5 229.367 L 426.386 193.288 L 419.373 176.39 L 383.325 174.169 Z " fill="rgb(150,160,169)"/><path d=" M 399.384 274.309 C 399.384 270.906 402.142 268.148 405.545 268.148 C 408.948 268.148 411.706 270.906 411.706 274.309 C 411.706 277.712 408.948 280.47 405.545 280.47 C 402.142 280.47 399.384 277.712 399.384 274.309 Z " fill="rgb(242,242,242)"/><path d=" M 316.757 383.655 L 310.935 533.576 C 310.935 533.576 285.796 644.306 290.163 647.217 C 294.53 650.128 296.379 667.487 296.379 667.487 L 321.123 670.397 C 321.123 670.397 321.123 658.753 326.946 654.387 C 332.769 650.021 386.623 444.788 386.623 444.788 L 439.163 643.218 C 439.163 643.218 440.478 654.387 444.845 654.387 C 449.212 654.387 450.667 670.397 450.667 670.397 L 475.411 670.397 L 475.411 654.387 C 475.411 654.387 486.529 650.862 482.163 639.217 C 477.797 627.572 457.945 383.655 457.945 383.655 L 316.757 383.655 Z " fill="rgb(47,46,65)"/><path d=" M 371.978 135.396 C 371.978 118.916 385.337 105.557 401.817 105.557 C 418.297 105.557 431.656 118.916 431.656 135.396 C 431.656 151.876 418.297 165.235 401.817 165.235 C 385.337 165.235 371.978 151.876 371.978 135.396 Z " fill="rgb(255,182,182)"/><g opacity="0.1"><path d=" M 452.85 269.395 L 458.672 273.762 L 461.583 253.384 L 452.85 269.395 Z " fill="rgb(0,0,0)"/></g><path d=" M 321.003 200.141 C 321.003 200.141 313.725 198.686 309.358 211.785 C 304.991 224.884 288.981 274.374 288.981 283.107 C 288.981 291.84 388.691 330.374 388.691 330.374 L 378.316 293.978 L 332.647 270.008 L 321.003 200.141 Z " fill="rgb(150,160,169)"/><path d=" M 376.316 307.978 C 376.316 298.589 383.927 290.978 393.316 290.978 C 402.705 290.978 410.316 298.589 410.316 307.978 C 410.316 317.367 402.705 324.978 393.316 324.978 C 383.927 324.978 376.316 317.367 376.316 307.978 Z " fill="rgb(255,182,182)"/><g opacity="0.1"><path d=" M 331.316 251.978 L 332.647 270.007 L 374.878 292.173 L 337.316 266.978 L 331.316 251.978 Z " fill="rgb(0,0,0)"/></g><path d=" M 432.84 254.548 L 432.291 254.548 L 432.291 239.541 C 432.291 234.744 428.402 230.855 423.605 230.855 L 391.808 230.855 C 387.011 230.855 383.122 234.744 383.122 239.541 L 383.122 321.878 C 383.122 326.675 387.011 330.564 391.808 330.564 L 423.605 330.564 C 428.402 330.564 432.291 326.675 432.291 321.878 L 432.291 265.231 L 432.839 265.231 L 432.84 254.548 Z " fill="rgb(240,240,240)"/><path d=" M 472.5 229.368 C 472.5 229.368 476.867 232.278 479.778 245.378 C 482.689 258.478 501.611 307.968 494.333 319.611 C 487.055 331.254 484.907 343.684 460.163 326.217 L 425.923 294.867 L 450.667 271.579 L 460.856 278.856 L 472.5 229.368 Z " fill="rgb(150,160,169)"/><path d=" M 400.817 260.273 C 400.817 256.253 404.075 252.995 408.095 252.995 C 412.115 252.995 415.373 256.253 415.373 260.273 C 415.373 264.293 412.115 267.551 408.095 267.551 C 404.075 267.551 400.817 264.293 400.817 260.273 Z " fill="rgb(150,160,169)"/><path d=" M 412.163 276.217 C 412.163 266.828 419.774 259.217 429.163 259.217 C 438.552 259.217 446.163 266.828 446.163 276.217 C 446.163 285.606 438.552 293.217 429.163 293.217 C 419.774 293.217 412.163 285.606 412.163 276.217 Z " fill="rgb(255,182,182)"/><g opacity="0.1"><path d=" M 330.514 306.391 L 379.316 327.978 L 329.158 318.175 L 330.514 306.391 Z " fill="rgb(0,0,0)"/></g><path d=" M 371.713 141.343 L 367.617 125.751 C 366.547 121.683 365.47 117.532 365.71 113.333 C 365.95 109.134 367.731 104.8 371.27 102.524 C 374.809 100.248 380.208 100.787 382.485 104.324 C 382.918 98.676 388.055 94.332 393.507 92.793 C 398.959 91.254 404.745 91.863 410.404 92.123 C 416.063 92.383 422.034 92.201 426.918 89.331 C 427.685 91.633 426.729 94.157 424.629 95.372 C 427.148 96.059 429.769 94.677 430.624 92.21 C 430.661 95.481 429.453 98.643 427.244 101.055 C 431.61 98.89 436.907 100.39 439.489 104.523 C 441.981 108.843 440.585 114.27 439.127 119.04 L 431.643 143.523 C 430.508 139.801 430.294 135.872 429.687 132.028 C 429.08 128.184 428 124.26 425.463 121.31 C 422.926 118.36 418.616 116.652 415.012 118.116 C 412.989 118.938 411.447 120.606 409.622 121.802 C 405.875 124.257 401.109 124.609 396.658 124.11 C 392.207 123.611 387.868 122.343 383.418 121.836 C 380.632 121.519 377.522 121.603 375.419 123.459 C 373.973 124.962 373.018 126.869 372.681 128.927 C 371.689 133.029 371.298 137.253 371.523 141.467" fill="rgb(47,46,65)"/></g></g></svg>